<svg xmlns="http://www.w3.org/2000/svg" viewBox="0 0 122.88 122.88">
  <title>email-square-line</title>
  <path fill="#fff" d="M26.3 0h70.28a26.36 26.36 0 0 1 26.3 26.3v70.28a26.36 26.36 0 0 1-26.3 26.3H26.3A26.36 26.36 0 0 1 0 96.58V26.3A26.36 26.36 0 0 1 26.3 0"/>
  <path fill="currentColor" d="M26.3 0h70.28a26.36 26.36 0 0 1 26.3 26.3v70.28a26.36 26.36 0 0 1-26.3 26.3H26.3A26.36 26.36 0 0 1 0 96.58V26.3A26.36 26.36 0 0 1 26.3 0m7 38.65h56.3a3.65 3.65 0 0 1 3.64 3.64V81a3.57 3.57 0 0 1-.63 2 1.5 1.5 0 0 1-.34.52 1.5 1.5 0 0 1-.34.24 3.7 3.7 0 0 1-2.33.85H33.29a3.63 3.63 0 0 1-2.57-1.07A3.67 3.67 0 0 1 29.65 81V42.29a3.65 3.65 0 0 1 3.64-3.64Zm-.85 40.79 19.72-19.77-19.73-16.09v35.86Zm21.9-18L34 81.83h54.7L69.27 61.44l-6.41 5.46a1.39 1.39 0 0 1-1.79 0l-6.73-5.48Zm17-1.81 19 20V43.41zM34.24 41.44 61.93 64l26.51-22.56ZM96.58 3.72H26.3A22.67 22.67 0 0 0 3.72 26.3v70.28a22.67 22.67 0 0 0 22.58 22.58h70.28a22.67 22.67 0 0 0 22.58-22.58V26.3A22.67 22.67 0 0 0 96.58 3.72"/>
</svg>
